<svg width="17" height="17" viewBox="0 0 17 17" fill="none" xmlns="http://www.w3.org/2000/svg">
<path d="M8.31372 0.313721C7.76144 0.313721 7.31372 0.761436 7.31372 1.31372V7.31372H1.31372C0.761436 7.31372 0.313721 7.76144 0.313721 8.31372C0.313721 8.86601 0.761436 9.31372 1.31372 9.31372H7.31372V15.3137C7.31372 15.866 7.76144 16.3137 8.31372 16.3137C8.86601 16.3137 9.31372 15.866 9.31372 15.3137V9.31372H15.3137C15.866 9.31372 16.3137 8.86601 16.3137 8.31372C16.3137 7.76144 15.866 7.31372 15.3137 7.31372H9.31372V1.31372C9.31372 0.761436 8.86601 0.313721 8.31372 0.313721Z" fill="white"/>
</svg>
