<svg width="18" height="16" viewBox="0 0 18 16" fill="none" xmlns="http://www.w3.org/2000/svg">
<path opacity="0.5" d="M17.3571 0.924927H0.642857C0.287277 0.924927 0 1.2122 0 1.56778V14.4249C0 14.7805 0.287277 15.0678 0.642857 15.0678H17.3571C17.7127 15.0678 18 14.7805 18 14.4249V1.56778C18 1.2122 17.7127 0.924927 17.3571 0.924927ZM1.44643 2.37136H16.5536V4.78207H1.44643V2.37136ZM16.5536 13.6214H1.44643V6.54993H16.5536V13.6214ZM11.7924 12.3356H15.1071C15.1955 12.3356 15.2679 12.2633 15.2679 12.1749V10.7285C15.2679 10.6401 15.1955 10.5678 15.1071 10.5678H11.7924C11.704 10.5678 11.6317 10.6401 11.6317 10.7285V12.1749C11.6317 12.2633 11.704 12.3356 11.7924 12.3356Z" fill="#7D7D7D"/>
</svg>
