<svg width="13" height="13" viewBox="0 0 13 13" fill="none" xmlns="http://www.w3.org/2000/svg">
<path d="M12 1.375H9.375V0.375C9.375 0.30625 9.31875 0.25 9.25 0.25H8.375C8.30625 0.25 8.25 0.30625 8.25 0.375V1.375H4.25V0.375C4.25 0.30625 4.19375 0.25 4.125 0.25H3.25C3.18125 0.25 3.125 0.30625 3.125 0.375V1.375H0.5C0.223437 1.375 0 1.59844 0 1.875V12.25C0 12.5266 0.223437 12.75 0.5 12.75H12C12.2766 12.75 12.5 12.5266 12.5 12.25V1.875C12.5 1.59844 12.2766 1.375 12 1.375ZM11.375 11.625H1.125V5.6875H11.375V11.625ZM1.125 4.625V2.5H3.125V3.25C3.125 3.31875 3.18125 3.375 3.25 3.375H4.125C4.19375 3.375 4.25 3.31875 4.25 3.25V2.5H8.25V3.25C8.25 3.31875 8.30625 3.375 8.375 3.375H9.25C9.31875 3.375 9.375 3.31875 9.375 3.25V2.5H11.375V4.625H1.125Z" fill="#BFBFBF"/>
</svg>
