<svg width="14" height="15" viewBox="0 0 14 15" fill="none" xmlns="http://www.w3.org/2000/svg">
<path d="M12.9018 11.9928C12.565 11.1949 12.0761 10.4702 11.4625 9.8589C10.8508 9.24588 10.1262 8.75712 9.32862 8.41961C9.32147 8.41604 9.31433 8.41425 9.30719 8.41068C10.4197 7.60711 11.1429 6.29818 11.1429 4.82139C11.1429 2.37497 9.16076 0.392822 6.71433 0.392822C4.2679 0.392822 2.28576 2.37497 2.28576 4.82139C2.28576 6.29818 3.00897 7.60711 4.12147 8.41247C4.11433 8.41604 4.10719 8.41782 4.10004 8.4214C3.30004 8.75889 2.58219 9.24282 1.96612 9.86068C1.3531 10.4724 0.864338 11.1971 0.52683 11.9946C0.195263 12.7754 0.016441 13.6125 4.46536e-05 14.4607C-0.000431963 14.4797 0.00291094 14.4987 0.00987649 14.5164C0.016842 14.5342 0.0272892 14.5504 0.0406025 14.564C0.0539158 14.5777 0.0698258 14.5885 0.0873949 14.5959C0.104964 14.6033 0.123837 14.6071 0.142902 14.6071H1.21433C1.2929 14.6071 1.3554 14.5446 1.35719 14.4678C1.3929 13.0893 1.94647 11.7982 2.92504 10.8196C3.93754 9.80711 5.28219 9.24997 6.71433 9.24997C8.14647 9.24997 9.49112 9.80711 10.5036 10.8196C11.4822 11.7982 12.0358 13.0893 12.0715 14.4678C12.0733 14.5464 12.1358 14.6071 12.2143 14.6071H13.2858C13.3048 14.6071 13.3237 14.6033 13.3413 14.5959C13.3588 14.5885 13.3747 14.5777 13.3881 14.564C13.4014 14.5504 13.4118 14.5342 13.4188 14.5164C13.4257 14.4987 13.4291 14.4797 13.4286 14.4607C13.4108 13.6071 13.234 12.7768 12.9018 11.9928ZM6.71433 7.89282C5.89469 7.89282 5.12326 7.57318 4.5429 6.99282C3.96254 6.41247 3.6429 5.64104 3.6429 4.82139C3.6429 4.00175 3.96254 3.23032 4.5429 2.64997C5.12326 2.06961 5.89469 1.74997 6.71433 1.74997C7.53397 1.74997 8.3054 2.06961 8.88576 2.64997C9.46611 3.23032 9.78576 4.00175 9.78576 4.82139C9.78576 5.64104 9.46611 6.41247 8.88576 6.99282C8.3054 7.57318 7.53397 7.89282 6.71433 7.89282Z" fill="#2892F4"/>
</svg>
