<svg width="17" height="13" viewBox="0 0 17 13" fill="none" xmlns="http://www.w3.org/2000/svg">
<path d="M16.6061 6.00537C14.7886 2.17676 12.0413 0.25 8.35841 0.25C4.67359 0.25 1.92819 2.17676 0.110708 6.00729C0.037808 6.16165 0 6.33025 0 6.50096C0 6.67167 0.037808 6.84027 0.110708 6.99463C1.92819 10.8232 4.67551 12.75 8.35841 12.75C12.0432 12.75 14.7886 10.8232 16.6061 6.99272C16.7537 6.68213 16.7537 6.3217 16.6061 6.00537ZM8.35841 11.3696C5.266 11.3696 3.00181 9.80138 1.4048 6.5C3.00181 3.19862 5.266 1.63037 8.35841 1.63037C11.4508 1.63037 13.715 3.19862 15.312 6.5C13.7169 9.80138 11.4527 11.3696 8.35841 11.3696ZM8.28172 3.12577C6.41822 3.12577 4.90749 4.6365 4.90749 6.5C4.90749 8.3635 6.41822 9.87423 8.28172 9.87423C10.1452 9.87423 11.656 8.3635 11.656 6.5C11.656 4.6365 10.1452 3.12577 8.28172 3.12577ZM8.28172 8.64724C7.09499 8.64724 6.13448 7.68673 6.13448 6.5C6.13448 5.31327 7.09499 4.35276 8.28172 4.35276C9.46845 4.35276 10.429 5.31327 10.429 6.5C10.429 7.68673 9.46845 8.64724 8.28172 8.64724Z" fill="#BFBFBF"/>
</svg>
