<svg width="18" height="16" viewBox="0 0 18 16" fill="none" xmlns="http://www.w3.org/2000/svg">
<path opacity="0.5" d="M17.2572 3.40798C16.9879 2.78448 16.5996 2.21947 16.1141 1.74458C15.6282 1.26828 15.0553 0.889766 14.4266 0.629628C13.7746 0.358811 13.0754 0.220191 12.3694 0.221816C11.379 0.221816 10.4127 0.493021 9.57302 1.0053C9.37212 1.12784 9.18128 1.26244 9.00047 1.40909C8.81967 1.26244 8.62882 1.12784 8.42793 1.0053C7.58819 0.493021 6.6219 0.221816 5.6315 0.221816C4.91833 0.221816 4.22726 0.358423 3.57435 0.629628C2.94355 0.890789 2.37502 1.26646 1.88685 1.74458C1.40069 2.21894 1.01232 2.78408 0.743774 3.40798C0.464533 4.05686 0.321899 4.74592 0.321899 5.45508C0.321899 6.12405 0.458507 6.82115 0.729712 7.5303C0.956721 8.12293 1.28217 8.73766 1.69802 9.35842C2.35694 10.3408 3.26297 11.3653 4.38797 12.404C6.25226 14.1256 8.09846 15.3149 8.17681 15.3631L8.65293 15.6685C8.86386 15.8031 9.13507 15.8031 9.34601 15.6685L9.82212 15.3631C9.90047 15.3129 11.7447 14.1256 13.611 12.404C14.736 11.3653 15.642 10.3408 16.3009 9.35842C16.7168 8.73766 17.0442 8.12293 17.2692 7.5303C17.5404 6.82115 17.677 6.12405 17.677 5.45508C17.679 4.74592 17.5364 4.05686 17.2572 3.40798ZM9.00047 14.0794C9.00047 14.0794 1.84869 9.49704 1.84869 5.45508C1.84869 3.40798 3.54221 1.7486 5.6315 1.7486C7.10002 1.7486 8.37369 2.56824 9.00047 3.76557C9.62726 2.56824 10.9009 1.7486 12.3694 1.7486C14.4587 1.7486 16.1523 3.40798 16.1523 5.45508C16.1523 9.49704 9.00047 14.0794 9.00047 14.0794Z" fill="#7D7D7D"/>
</svg>
