<svg width="18" height="17" viewBox="0 0 18 17" fill="none" xmlns="http://www.w3.org/2000/svg">
<path d="M0.966721 1.10683L0.966721 15.8925C0.966721 16.2481 1.254 16.5354 1.60958 16.5354H16.3953C16.7509 16.5354 17.0382 16.2481 17.0382 15.8925V1.10683C17.0382 0.751247 16.7509 0.46397 16.3953 0.46397H1.60958C1.254 0.46397 0.966721 0.751247 0.966721 1.10683ZM15.5917 1.9104V15.089H2.41315L2.41315 1.9104H15.5917ZM12.4377 11.955H13.9846C14.073 11.955 14.1453 11.8827 14.1453 11.7943V10.83C14.1453 10.7417 14.073 10.6693 13.9846 10.6693H12.4377C12.504 10.8722 12.5381 11.0872 12.5381 11.3122C12.5381 11.5372 12.502 11.7521 12.4377 11.955ZM8.46002 10.6693H4.02029C3.9319 10.6693 3.85958 10.7417 3.85958 10.83V11.7943C3.85958 11.8827 3.9319 11.955 4.02029 11.955H8.46002C8.39373 11.7521 8.35958 11.5372 8.35958 11.3122C8.35958 11.0872 8.39574 10.8722 8.46002 10.6693ZM12.4377 11.955C12.504 11.7521 12.5381 11.5372 12.5381 11.3122C12.5381 11.0872 12.502 10.8722 12.4377 10.6693C12.1665 9.8296 11.379 9.2229 10.4489 9.2229C9.51873 9.2229 8.73123 9.8296 8.46002 10.6693C8.39373 10.8722 8.35958 11.0872 8.35958 11.3122C8.35958 11.5372 8.39574 11.7521 8.46002 11.955C8.73123 12.7948 9.51873 13.4015 10.4489 13.4015C11.379 13.4015 12.1665 12.7948 12.4377 11.955ZM10.1134 11.953C10.1013 11.947 10.0893 11.939 10.0772 11.9329H10.0752L10.039 11.9088C10.035 11.9068 10.033 11.9048 10.029 11.9028C10.019 11.8968 10.0109 11.8887 10.0009 11.8827C9.99886 11.8807 9.99485 11.8787 9.99284 11.8767C9.98078 11.8667 9.97074 11.8586 9.96069 11.8486L9.95467 11.8425L9.93056 11.8184L9.92252 11.8104C9.91248 11.8004 9.90444 11.7903 9.8944 11.7783C9.88436 11.7662 9.87632 11.7562 9.86828 11.7441C9.86627 11.7401 9.86427 11.7381 9.86226 11.7341C9.85623 11.724 9.84819 11.716 9.84217 11.7059C9.84016 11.7039 9.83815 11.6999 9.83614 11.6979C9.8281 11.6858 9.82208 11.6738 9.81404 11.6597C9.81203 11.6577 9.81203 11.6537 9.81003 11.6517C9.804 11.6416 9.79998 11.6316 9.79395 11.6196L9.78793 11.6075C9.7819 11.5934 9.77587 11.5814 9.77186 11.5673C9.76583 11.5533 9.76181 11.5392 9.75779 11.5251C9.75578 11.5211 9.75578 11.5171 9.75378 11.5131C9.74976 11.501 9.74775 11.491 9.74574 11.4789C9.74574 11.4749 9.74373 11.4729 9.74373 11.4689C9.73971 11.4548 9.7377 11.4387 9.73569 11.4247C9.73569 11.4207 9.73569 11.4187 9.73369 11.4146C9.73168 11.4026 9.73168 11.3905 9.72967 11.3785V11.3664C9.72967 11.3504 9.72766 11.3363 9.72766 11.3202C9.72766 11.3041 9.72766 11.2901 9.72967 11.274V11.262C9.72967 11.2499 9.73168 11.2379 9.73369 11.2258C9.73369 11.2218 9.73369 11.2198 9.73569 11.2158C9.7377 11.2017 9.73971 11.1856 9.74373 11.1716C9.74373 11.1675 9.74574 11.1655 9.74574 11.1615C9.74775 11.1495 9.75177 11.1374 9.75378 11.1274C9.75578 11.1233 9.75578 11.1193 9.75779 11.1153C9.76181 11.1012 9.76583 11.0872 9.77186 11.0731C9.77587 11.0591 9.7819 11.047 9.78793 11.0329L9.79395 11.0209C9.79797 11.0108 9.804 10.9988 9.81003 10.9887C9.81203 10.9867 9.81203 10.9827 9.81404 10.9807C9.82007 10.9687 9.8281 10.9546 9.83614 10.9425C9.83815 10.9405 9.84016 10.9365 9.84217 10.9345C9.84819 10.9245 9.85422 10.9144 9.86226 10.9064C9.86427 10.9024 9.86627 10.9004 9.86828 10.8963C9.87632 10.8843 9.88636 10.8722 9.8944 10.8622C9.90244 10.8521 9.91248 10.8401 9.92252 10.83L9.93056 10.822L9.95467 10.7979L9.96069 10.7919C9.97074 10.7818 9.98279 10.7718 9.99284 10.7637C9.99485 10.7617 9.99886 10.7597 10.0009 10.7577C10.0089 10.7497 10.019 10.7437 10.029 10.7376C10.033 10.7356 10.035 10.7336 10.039 10.7316L10.0752 10.7075C10.0752 10.7075 10.0772 10.7075 10.0772 10.7055C10.1896 10.6385 10.318 10.6031 10.4489 10.603C10.5694 10.603 10.6839 10.6332 10.7844 10.6854C10.7964 10.6914 10.8085 10.6995 10.8205 10.7055C10.8205 10.7055 10.8225 10.7055 10.8225 10.7075L10.8587 10.7316C10.8627 10.7336 10.8647 10.7356 10.8687 10.7376C10.8788 10.7437 10.8868 10.7517 10.8969 10.7577C10.8989 10.7597 10.9029 10.7617 10.9049 10.7637C10.9169 10.7738 10.927 10.7818 10.937 10.7919L10.9431 10.7979L10.9672 10.822L10.9752 10.83C10.9852 10.8401 10.9933 10.8501 11.0033 10.8622C11.0134 10.8742 11.0214 10.8843 11.0294 10.8963C11.0315 10.9004 11.0335 10.9024 11.0355 10.9064C11.0415 10.9164 11.0495 10.9245 11.0556 10.9345C11.0576 10.9365 11.0596 10.9405 11.0616 10.9425C11.0696 10.9546 11.0756 10.9667 11.0837 10.9807C11.0857 10.9827 11.0857 10.9867 11.0877 10.9887C11.0937 10.9988 11.0977 11.0088 11.1038 11.0209L11.1098 11.0329C11.1158 11.047 11.1219 11.0591 11.1259 11.0731C11.1319 11.0872 11.1359 11.1012 11.1399 11.1153C11.1419 11.1193 11.1419 11.1233 11.144 11.1274C11.148 11.1394 11.15 11.1495 11.152 11.1615C11.152 11.1655 11.154 11.1675 11.154 11.1716C11.158 11.1856 11.16 11.2017 11.162 11.2158C11.162 11.2198 11.162 11.2218 11.164 11.2258C11.1661 11.2379 11.1661 11.2499 11.1681 11.262V11.274C11.1681 11.2901 11.1701 11.3041 11.1701 11.3202C11.1701 11.3363 11.1701 11.3504 11.1681 11.3664V11.3785C11.1681 11.3905 11.1661 11.4026 11.164 11.4146C11.164 11.4187 11.164 11.4207 11.162 11.4247C11.16 11.4387 11.158 11.4548 11.154 11.4689C11.154 11.4729 11.152 11.4749 11.152 11.4789C11.15 11.491 11.146 11.503 11.144 11.5131C11.1419 11.5171 11.1419 11.5211 11.1399 11.5251C11.1359 11.5392 11.1319 11.5533 11.1259 11.5673C11.1219 11.5814 11.1158 11.5934 11.1098 11.6075L11.1038 11.6196C11.0998 11.6296 11.0937 11.6416 11.0877 11.6517C11.0857 11.6537 11.0857 11.6577 11.0837 11.6597C11.0777 11.6718 11.0696 11.6858 11.0616 11.6979C11.0596 11.6999 11.0576 11.7039 11.0556 11.7059C11.0495 11.716 11.0435 11.726 11.0355 11.7341C11.0335 11.7381 11.0315 11.7401 11.0294 11.7441C11.0214 11.7562 11.0114 11.7682 11.0033 11.7783C10.9953 11.7883 10.9852 11.8004 10.9752 11.8104L10.9672 11.8184L10.9431 11.8425L10.937 11.8486C10.927 11.8586 10.9149 11.8687 10.9049 11.8767C10.9029 11.8787 10.8989 11.8807 10.8969 11.8827C10.8888 11.8908 10.8788 11.8968 10.8687 11.9028C10.8647 11.9048 10.8627 11.9068 10.8587 11.9088L10.8225 11.9329H10.8205C10.8085 11.941 10.7964 11.947 10.7844 11.953C10.6839 12.0053 10.5694 12.0354 10.4489 12.0354C10.3283 12.0354 10.2138 12.0053 10.1134 11.953ZM9.54485 6.33004H13.9846C14.073 6.33004 14.1453 6.25772 14.1453 6.16933V5.20504C14.1453 5.11665 14.073 5.04433 13.9846 5.04433H9.54485C9.61114 5.24723 9.64529 5.46218 9.64529 5.68719C9.64529 5.91219 9.60913 6.12714 9.54485 6.33004ZM5.56717 5.04433H4.02029C3.9319 5.04433 3.85958 5.11665 3.85958 5.20504V6.16933C3.85958 6.25772 3.9319 6.33004 4.02029 6.33004H5.56717C5.50087 6.12714 5.46672 5.91219 5.46672 5.68719C5.46672 5.46218 5.50288 5.24723 5.56717 5.04433ZM9.54485 6.33004C9.61114 6.12714 9.64529 5.91219 9.64529 5.68719C9.64529 5.46218 9.60913 5.24723 9.54485 5.04433C9.27364 4.2046 8.48614 3.5979 7.55601 3.5979C6.62587 3.5979 5.83837 4.2046 5.56717 5.04433C5.50087 5.24723 5.46672 5.46218 5.46672 5.68719C5.46672 5.91219 5.50288 6.12714 5.56717 6.33004C5.83837 7.16978 6.62587 7.77647 7.55601 7.77647C8.48614 7.77647 9.27364 7.16978 9.54485 6.33004ZM7.22052 6.32803C7.20846 6.32201 7.19641 6.31397 7.18435 6.30794H7.18235L7.14619 6.28384C7.14217 6.28183 7.14016 6.27982 7.13614 6.27781C7.1261 6.27178 7.11806 6.26375 7.10802 6.25772C7.10601 6.25571 7.10199 6.2537 7.09998 6.25169C7.08793 6.24165 7.07788 6.23361 7.06784 6.22357L7.06181 6.21754L7.0377 6.19344L7.02967 6.1854C7.01962 6.17535 7.01159 6.16531 7.00154 6.15326C6.9915 6.1412 6.98346 6.13116 6.97543 6.11911C6.97342 6.11509 6.97141 6.11308 6.9694 6.10906C6.96337 6.09902 6.95534 6.09098 6.94931 6.08093C6.9473 6.07893 6.94529 6.07491 6.94328 6.0729C6.93525 6.06085 6.92922 6.04879 6.92119 6.03473C6.91918 6.03272 6.91918 6.0287 6.91717 6.02669C6.91114 6.01665 6.90712 6.0066 6.9011 5.99455L6.89507 5.9825C6.88904 5.96844 6.88302 5.95638 6.879 5.94232C6.87297 5.92826 6.86895 5.91419 6.86494 5.90013C6.86293 5.89611 6.86293 5.8921 6.86092 5.88808C6.8569 5.87602 6.85489 5.86598 6.85288 5.85393C6.85288 5.84991 6.85087 5.8479 6.85087 5.84388C6.84685 5.82982 6.84485 5.81375 6.84284 5.79968C6.84284 5.79567 6.84284 5.79366 6.84083 5.78964C6.83882 5.77759 6.83882 5.76553 6.83681 5.75348V5.74143C6.83681 5.72536 6.8348 5.71129 6.8348 5.69522C6.8348 5.67915 6.8348 5.66509 6.83681 5.64902V5.63696C6.83681 5.62491 6.83882 5.61285 6.84083 5.6008C6.84083 5.59678 6.84083 5.59478 6.84284 5.59076C6.84485 5.57669 6.84685 5.56062 6.85087 5.54656C6.85087 5.54254 6.85288 5.54053 6.85288 5.53652C6.85489 5.52446 6.85891 5.51241 6.86092 5.50236C6.86293 5.49835 6.86293 5.49433 6.86494 5.49031C6.86895 5.47625 6.87297 5.46218 6.879 5.44812C6.88302 5.43406 6.88904 5.42201 6.89507 5.40794L6.9011 5.39589C6.90511 5.38585 6.91114 5.37379 6.91717 5.36375C6.91918 5.36174 6.91918 5.35772 6.92119 5.35571C6.92721 5.34366 6.93525 5.3296 6.94328 5.31754C6.94529 5.31553 6.9473 5.31152 6.94931 5.30951C6.95534 5.29946 6.96136 5.28942 6.9694 5.28138C6.97141 5.27736 6.97342 5.27535 6.97543 5.27134C6.98346 5.25928 6.99351 5.24723 7.00154 5.23718C7.00958 5.22714 7.01962 5.21509 7.02967 5.20504L7.0377 5.19701L7.06181 5.1729L7.06784 5.16687C7.07788 5.15683 7.08994 5.14678 7.09998 5.13875C7.10199 5.13674 7.10601 5.13473 7.10802 5.13272C7.11605 5.12469 7.1261 5.11866 7.13614 5.11263C7.14016 5.11062 7.14217 5.10861 7.14619 5.1066L7.18235 5.0825H7.18435C7.29676 5.01552 7.42516 4.98012 7.55601 4.98004C7.67654 4.98004 7.79105 5.01018 7.8915 5.06241C7.90355 5.06844 7.91561 5.07647 7.92766 5.0825H7.92967L7.96583 5.1066C7.96985 5.10861 7.97186 5.11062 7.97587 5.11263C7.98592 5.11866 7.99395 5.12669 8.004 5.13272C8.00601 5.13473 8.01003 5.13674 8.01203 5.13875C8.02409 5.14879 8.03413 5.15683 8.04418 5.16687L8.0502 5.1729L8.07431 5.19701L8.08235 5.20504C8.09239 5.21509 8.10043 5.22513 8.11047 5.23718C8.12052 5.24924 8.12855 5.25928 8.13659 5.27134C8.1386 5.27535 8.14061 5.27736 8.14261 5.28138C8.14864 5.29143 8.15668 5.29946 8.1627 5.30951C8.16471 5.31152 8.16672 5.31553 8.16873 5.31754C8.17677 5.3296 8.18279 5.34165 8.19083 5.35571C8.19284 5.35772 8.19284 5.36174 8.19485 5.36375C8.20087 5.37379 8.20489 5.38384 8.21092 5.39589L8.21694 5.40794C8.22297 5.42201 8.229 5.43406 8.23302 5.44812C8.23904 5.46218 8.24306 5.47625 8.24708 5.49031C8.24909 5.49433 8.24909 5.49835 8.2511 5.50236C8.25511 5.51442 8.25712 5.52446 8.25913 5.53652C8.25913 5.54053 8.26114 5.54254 8.26114 5.54656C8.26516 5.56062 8.26717 5.57669 8.26918 5.59076C8.26918 5.59478 8.26918 5.59678 8.27119 5.6008C8.27319 5.61285 8.27319 5.62491 8.2752 5.63696V5.64902C8.2752 5.66509 8.27721 5.67915 8.27721 5.69522C8.27721 5.71129 8.27721 5.72536 8.2752 5.74143V5.75348C8.2752 5.76553 8.27319 5.77759 8.27119 5.78964C8.27119 5.79366 8.27119 5.79567 8.26918 5.79968C8.26717 5.81375 8.26516 5.82982 8.26114 5.84388C8.26114 5.8479 8.25913 5.84991 8.25913 5.85393C8.25712 5.86598 8.25311 5.87803 8.2511 5.88808C8.24909 5.8921 8.24909 5.89611 8.24708 5.90013C8.24306 5.91419 8.23904 5.92826 8.23302 5.94232C8.229 5.95638 8.22297 5.96844 8.21694 5.9825L8.21092 5.99455C8.2069 6.0046 8.20087 6.01665 8.19485 6.02669C8.19284 6.0287 8.19284 6.03272 8.19083 6.03473C8.1848 6.04678 8.17677 6.06085 8.16873 6.0729C8.16672 6.07491 8.16471 6.07893 8.1627 6.08093C8.15668 6.09098 8.15065 6.10102 8.14261 6.10906C8.14061 6.11308 8.1386 6.11509 8.13659 6.11911C8.12855 6.13116 8.11851 6.14321 8.11047 6.15326C8.10244 6.1633 8.09239 6.17535 8.08235 6.1854L8.07431 6.19344L8.0502 6.21754L8.04418 6.22357C8.03413 6.23361 8.02208 6.24366 8.01203 6.25169C8.01003 6.2537 8.00601 6.25571 8.004 6.25772C7.99596 6.26576 7.98592 6.27178 7.97587 6.27781C7.97186 6.27982 7.96985 6.28183 7.96583 6.28384L7.92967 6.30794H7.92766C7.91561 6.31598 7.90355 6.32201 7.8915 6.32803C7.79105 6.38027 7.67654 6.4104 7.55601 6.4104C7.43547 6.4104 7.32096 6.38027 7.22052 6.32803Z" fill="#2892F4"/>
</svg>
