<svg width="14" height="14" viewBox="0 0 14 14" fill="none" xmlns="http://www.w3.org/2000/svg">
<path d="M13.4222 3.42839C13.2128 2.94345 12.9108 2.504 12.5332 2.13464C12.1552 1.76418 11.7097 1.46978 11.2207 1.26745C10.7136 1.05682 10.1697 0.949004 9.62066 0.950267C8.85035 0.950267 8.09879 1.1612 7.44566 1.55964C7.28941 1.65495 7.14098 1.75964 7.00035 1.87371C6.85973 1.75964 6.71129 1.65495 6.55504 1.55964C5.90191 1.1612 5.15035 0.950267 4.38004 0.950267C3.82535 0.950267 3.28785 1.05652 2.78004 1.26745C2.28941 1.47058 1.84723 1.76277 1.46754 2.13464C1.08941 2.50358 0.787348 2.94314 0.578476 3.42839C0.361288 3.93308 0.250351 4.46902 0.250351 5.02058C0.250351 5.54089 0.356601 6.08308 0.567539 6.63464C0.744101 7.09558 0.997226 7.57371 1.32066 8.05652C1.83316 8.82058 2.53785 9.61746 3.41285 10.4253C4.86285 11.7643 6.29879 12.6893 6.35973 12.7268L6.73004 12.9643C6.8941 13.069 7.10504 13.069 7.2691 12.9643L7.63941 12.7268C7.70035 12.6878 9.13473 11.7643 10.5863 10.4253C11.4613 9.61746 12.166 8.82058 12.6785 8.05652C13.0019 7.57371 13.2566 7.09558 13.4316 6.63464C13.6425 6.08308 13.7488 5.54089 13.7488 5.02058C13.7504 4.46902 13.6394 3.93308 13.4222 3.42839ZM7.00035 11.7284C7.00035 11.7284 1.43785 8.16433 1.43785 5.02058C1.43785 3.42839 2.75504 2.13777 4.38004 2.13777C5.52223 2.13777 6.51285 2.77527 7.00035 3.70652C7.48785 2.77527 8.47848 2.13777 9.62066 2.13777C11.2457 2.13777 12.5629 3.42839 12.5629 5.02058C12.5629 8.16433 7.00035 11.7284 7.00035 11.7284Z" fill="#FB3235"/>
<path d="M12.7097 4.0493C12.5235 3.64828 12.255 3.28487 11.9193 2.97943C11.5833 2.67308 11.1872 2.42962 10.7525 2.26231C10.3017 2.08812 9.81824 1.99896 9.33012 2.00001C8.64532 2.00001 7.97719 2.17444 7.39657 2.50393C7.25766 2.58275 7.1257 2.66932 7.00069 2.76365C6.87567 2.66932 6.74371 2.58275 6.60481 2.50393C6.02419 2.17444 5.35605 2.00001 4.67125 2.00001C4.17814 2.00001 3.70031 2.08787 3.24887 2.26231C2.81271 2.43028 2.41961 2.67191 2.08207 2.97943C1.74591 3.28453 1.47739 3.64802 1.2917 4.0493C1.09862 4.46665 1 4.90985 1 5.36597C1 5.79624 1.09446 6.2446 1.28198 6.70072C1.43894 7.08189 1.66396 7.47728 1.9515 7.87654C2.40711 8.50839 3.03357 9.16736 3.81143 9.83539C5.10047 10.9427 6.377 11.7077 6.43118 11.7387L6.76038 11.9351C6.90623 12.0216 7.09375 12.0216 7.2396 11.9351L7.56881 11.7387C7.62298 11.7064 8.89813 10.9427 10.1886 9.83539C10.9664 9.16736 11.5929 8.50839 12.0485 7.87654C12.336 7.47728 12.5624 7.08189 12.718 6.70072C12.9055 6.2446 13 5.79624 13 5.36597C13.0014 4.90985 12.9028 4.46665 12.7097 4.0493ZM7.00069 10.913C7.00069 10.913 2.05568 7.9657 2.05568 5.36597C2.05568 4.0493 3.22664 2.98202 4.67125 2.98202C5.68665 2.98202 6.5673 3.5092 7.00069 4.2793C7.43407 3.5092 8.31473 2.98202 9.33012 2.98202C10.7747 2.98202 11.9457 4.0493 11.9457 5.36597C11.9457 7.9657 7.00069 10.913 7.00069 10.913Z" fill="#FB3235"/>
<circle cx="5" cy="6" r="4" fill="#FB3235"/>
<circle cx="9" cy="6" r="4" fill="#FB3235"/>
<circle cx="7" cy="8" r="4" fill="#FB3235"/>
</svg>
