<svg width="14" height="14" viewBox="0 0 14 14" fill="none" xmlns="http://www.w3.org/2000/svg">
<path d="M13.4222 3.42839C13.2128 2.94345 12.9108 2.504 12.5332 2.13464C12.1552 1.76418 11.7097 1.46978 11.2207 1.26745C10.7136 1.05682 10.1697 0.949004 9.62066 0.950267C8.85035 0.950267 8.09879 1.1612 7.44566 1.55964C7.28941 1.65495 7.14098 1.75964 7.00035 1.87371C6.85973 1.75964 6.71129 1.65495 6.55504 1.55964C5.90191 1.1612 5.15035 0.950267 4.38004 0.950267C3.82535 0.950267 3.28785 1.05652 2.78004 1.26745C2.28941 1.47058 1.84723 1.76277 1.46754 2.13464C1.08941 2.50358 0.787348 2.94314 0.578476 3.42839C0.361288 3.93308 0.250351 4.46902 0.250351 5.02058C0.250351 5.54089 0.356601 6.08308 0.567539 6.63464C0.744101 7.09558 0.997226 7.57371 1.32066 8.05652C1.83316 8.82058 2.53785 9.61746 3.41285 10.4253C4.86285 11.7643 6.29879 12.6893 6.35973 12.7268L6.73004 12.9643C6.8941 13.069 7.10504 13.069 7.2691 12.9643L7.63941 12.7268C7.70035 12.6878 9.13473 11.7643 10.5863 10.4253C11.4613 9.61746 12.166 8.82058 12.6785 8.05652C13.0019 7.57371 13.2566 7.09558 13.4316 6.63464C13.6425 6.08308 13.7488 5.54089 13.7488 5.02058C13.7504 4.46902 13.6394 3.93308 13.4222 3.42839ZM7.00035 11.7284C7.00035 11.7284 1.43785 8.16433 1.43785 5.02058C1.43785 3.42839 2.75504 2.13777 4.38004 2.13777C5.52223 2.13777 6.51285 2.77527 7.00035 3.70652C7.48785 2.77527 8.47848 2.13777 9.62066 2.13777C11.2457 2.13777 12.5629 3.42839 12.5629 5.02058C12.5629 8.16433 7.00035 11.7284 7.00035 11.7284Z" fill="#1C77CC"/>
</svg>
