<svg width="10" height="12" viewBox="0 0 10 12" fill="none" xmlns="http://www.w3.org/2000/svg">
<path d="M9.5886 3.01554C9.33646 2.43413 8.97293 1.90771 8.51851 1.46599C8.06261 1.02027 7.52515 0.66651 6.93548 0.424021C6.32208 0.169557 5.67119 0.0409851 5.00021 0.0409851C4.32923 0.0409851 3.67833 0.169557 3.06494 0.422682C2.47164 0.667771 1.93994 1.01866 1.48191 1.46465C1.02778 1.90662 0.664293 2.43298 0.411816 3.0142C0.150656 3.61688 0.0180664 4.25706 0.0180664 4.91599C0.0180664 5.86152 0.244406 6.80304 0.689049 7.71107C1.04664 8.44099 1.54619 9.15215 2.17566 9.82849C3.2511 10.9829 4.37878 11.6888 4.69887 11.8776C4.78973 11.9313 4.89335 11.9595 4.99887 11.9593C5.10333 11.9593 5.20646 11.9325 5.29887 11.8776C5.61896 11.6888 6.74664 10.9829 7.82208 9.82849C8.45155 9.15349 8.9511 8.44099 9.30869 7.71107C9.75601 6.80438 9.98235 5.8642 9.98235 4.91732C9.98235 4.2584 9.84976 3.61822 9.5886 3.01554ZM5.00021 10.9321C4.11762 10.3709 0.982352 8.14902 0.982352 4.91732C0.982352 3.87402 1.39887 2.89366 2.15557 2.15438C2.91494 1.41375 3.92476 1.00527 5.00021 1.00527C6.07566 1.00527 7.08548 1.41375 7.84485 2.15572C8.60155 2.89366 9.01807 3.87402 9.01807 4.91732C9.01807 8.14902 5.8828 10.3709 5.00021 10.9321ZM5.00021 2.66599C3.69842 2.66599 2.64307 3.72134 2.64307 5.02313C2.64307 6.32491 3.69842 7.38027 5.00021 7.38027C6.30199 7.38027 7.35735 6.32491 7.35735 5.02313C7.35735 3.72134 6.30199 2.66599 5.00021 2.66599ZM6.06092 6.08384C5.9218 6.22336 5.75647 6.334 5.57443 6.40939C5.39239 6.48478 5.19724 6.52343 5.00021 6.52313C4.59976 6.52313 4.22342 6.36643 3.93949 6.08384C3.79997 5.94472 3.68933 5.77938 3.61395 5.59735C3.53856 5.41531 3.4999 5.22016 3.50021 5.02313C3.50021 4.62268 3.65691 4.24634 3.93949 3.96241C4.22342 3.67848 4.59976 3.52313 5.00021 3.52313C5.40066 3.52313 5.777 3.67848 6.06092 3.96241C6.34485 4.24634 6.50021 4.62268 6.50021 5.02313C6.50021 5.42357 6.34485 5.79991 6.06092 6.08384Z" fill="#2892F4"/>
</svg>
