<svg width="14" height="18" viewBox="0 0 14 18" fill="none" xmlns="http://www.w3.org/2000/svg">
<path d="M13.1071 14.1404H12.625V7.31005C12.625 4.47545 10.5297 2.13304 7.80357 1.74331V0.961836C7.80357 0.517862 7.44397 0.158264 7 0.158264C6.55603 0.158264 6.19643 0.517862 6.19643 0.961836V1.74331C3.47031 2.13304 1.375 4.47545 1.375 7.31005V14.1404H0.892857C0.537277 14.1404 0.25 14.4277 0.25 14.7833V15.4261C0.25 15.5145 0.322321 15.5868 0.410714 15.5868H4.75C4.75 16.8284 5.75848 17.8368 7 17.8368C8.24152 17.8368 9.25 16.8284 9.25 15.5868H13.5893C13.6777 15.5868 13.75 15.5145 13.75 15.4261V14.7833C13.75 14.4277 13.4627 14.1404 13.1071 14.1404ZM7 16.5511C6.46763 16.5511 6.03571 16.1192 6.03571 15.5868H7.96429C7.96429 16.1192 7.53237 16.5511 7 16.5511ZM2.82143 14.1404V7.31005C2.82143 6.19309 3.25536 5.14442 4.04487 4.35492C4.83438 3.56541 5.88304 3.13148 7 3.13148C8.11696 3.13148 9.16563 3.56541 9.95513 4.35492C10.7446 5.14442 11.1786 6.19309 11.1786 7.31005V14.1404H2.82143Z" fill="#262626"/>
</svg>
