<svg width="13" height="15" viewBox="0 0 13 15" fill="none" xmlns="http://www.w3.org/2000/svg">
<path d="M12 6.64289H10.7857V2.64289C10.7857 1.38039 9.7625 0.357178 8.5 0.357178H4.07143C2.80893 0.357178 1.78571 1.38039 1.78571 2.64289V6.64289H0.571429C0.255357 6.64289 0 6.89825 0 7.21432V14.0715C0 14.3875 0.255357 14.6429 0.571429 14.6429H12C12.3161 14.6429 12.5714 14.3875 12.5714 14.0715V7.21432C12.5714 6.89825 12.3161 6.64289 12 6.64289ZM3.07143 2.64289C3.07143 2.09111 3.51964 1.64289 4.07143 1.64289H8.5C9.05179 1.64289 9.5 2.09111 9.5 2.64289V6.64289H3.07143V2.64289ZM11.2857 13.3572H1.28571V7.92861H11.2857V13.3572ZM5.78572 10.875V11.8215C5.78572 11.9 5.85 11.9643 5.92857 11.9643H6.64286C6.72143 11.9643 6.78572 11.9 6.78572 11.8215V10.875C6.93312 10.7692 7.04314 10.6193 7.09995 10.447C7.15675 10.2746 7.15741 10.0887 7.10182 9.91599C7.04623 9.74325 6.93727 9.59261 6.79061 9.48574C6.64396 9.37887 6.46718 9.3213 6.28572 9.3213C6.10425 9.3213 5.92747 9.37887 5.78082 9.48574C5.63416 9.59261 5.5252 9.74325 5.46961 9.91599C5.41402 10.0887 5.41468 10.2746 5.47148 10.447C5.52829 10.6193 5.63831 10.7692 5.78572 10.875Z" fill="#2892F4"/>
</svg>
