<svg width="13" height="13" viewBox="0 0 13 13" fill="none" xmlns="http://www.w3.org/2000/svg">
<path d="M11.9532 2.22944L10.2893 0.567148C10.0862 0.364048 9.8144 0.25 9.52693 0.25C9.23947 0.25 8.96763 0.362486 8.76453 0.567148L6.97257 2.35599C6.76947 2.55909 6.65542 2.83249 6.65542 3.11995C6.65542 3.40898 6.7679 3.67926 6.97257 3.88392L8.37239 5.28531C8.0535 6.02832 7.59531 6.70341 7.02256 7.27412C6.44919 7.85061 5.77896 8.30524 5.03531 8.62708L3.63548 7.22569C3.43238 7.02259 3.16054 6.90854 2.87308 6.90854C2.73129 6.90802 2.59082 6.9358 2.4599 6.99026C2.32899 7.04472 2.21026 7.12476 2.11067 7.22569L0.317148 9.01453C0.114048 9.21763 0 9.49103 0 9.7785C0 10.0675 0.112486 10.3378 0.317148 10.5425L1.97944 12.2048C2.32627 12.5516 2.80434 12.75 3.2949 12.75C3.39645 12.75 3.49488 12.7422 3.59486 12.725C5.66335 12.3844 7.71622 11.283 9.37383 9.62695C11.0299 7.96779 12.1297 5.91492 12.4734 3.84486C12.5719 3.25744 12.375 2.65282 11.9532 2.22944ZM11.3658 3.65895C11.0611 5.50091 10.0706 7.33818 8.57862 8.83018C7.08661 10.3222 5.25091 11.3127 3.40895 11.6173C3.17773 11.6564 2.94026 11.5783 2.77153 11.4111L1.13892 9.7785L2.86995 8.0459L4.74159 9.92067L4.75566 9.93473L5.09311 9.80974C6.11631 9.43355 7.04547 8.83936 7.8162 8.06837C8.58692 7.29737 9.18078 6.368 9.55662 5.34468L9.6816 5.00722L7.79434 3.12152L9.52537 1.38892L11.158 3.02153C11.3267 3.19026 11.4048 3.42773 11.3658 3.65895Z" fill="#BFBFBF"/>
</svg>
