<svg width="10" height="10" viewBox="0 0 10 10" fill="none" xmlns="http://www.w3.org/2000/svg">
<path opacity="0.5" d="M8.86688 7.80664C8.65635 7.30795 8.35082 6.85497 7.96733 6.47294C7.585 6.0898 7.13209 5.78433 6.63362 5.57338C6.62916 5.57115 6.6247 5.57003 6.62023 5.5678C7.31554 5.06557 7.76755 4.24749 7.76755 3.3245C7.76755 1.79548 6.52871 0.556641 4.99969 0.556641C3.47068 0.556641 2.23184 1.79548 2.23184 3.3245C2.23184 4.24749 2.68385 5.06557 3.37916 5.56892C3.37469 5.57115 3.37023 5.57227 3.36577 5.5745C2.86577 5.78544 2.41711 6.08789 2.03206 6.47405C1.64892 6.85638 1.34345 7.30929 1.13251 7.80776C0.925277 8.29576 0.813514 8.81897 0.803266 9.34905C0.802968 9.36096 0.805057 9.37282 0.809411 9.38391C0.813764 9.395 0.820294 9.40511 0.828614 9.41364C0.836935 9.42216 0.846879 9.42894 0.85786 9.43357C0.868841 9.43819 0.880636 9.44057 0.892552 9.44057H1.56219C1.6113 9.44057 1.65036 9.40151 1.65148 9.35352C1.6738 8.49191 2.01978 7.68499 2.63139 7.07338C3.2642 6.44057 4.10461 6.09236 4.99969 6.09236C5.89478 6.09236 6.73519 6.44057 7.368 7.07338C7.97961 7.68499 8.32559 8.49191 8.34791 9.35352C8.34903 9.40262 8.38809 9.44057 8.4372 9.44057H9.10684C9.11875 9.44057 9.13055 9.43819 9.14153 9.43357C9.15251 9.42894 9.16245 9.42216 9.17078 9.41364C9.1791 9.40511 9.18563 9.395 9.18998 9.38391C9.19433 9.37282 9.19642 9.36096 9.19612 9.34905C9.18496 8.81557 9.07447 8.2966 8.86688 7.80664ZM4.99969 5.24414C4.48742 5.24414 4.00528 5.04436 3.64255 4.68164C3.27983 4.31892 3.08005 3.83678 3.08005 3.3245C3.08005 2.81222 3.27983 2.33008 3.64255 1.96736C4.00528 1.60463 4.48742 1.40486 4.99969 1.40486C5.51197 1.40486 5.99411 1.60463 6.35684 1.96736C6.71956 2.33008 6.91934 2.81222 6.91934 3.3245C6.91934 3.83678 6.71956 4.31892 6.35684 4.68164C5.99411 5.04436 5.51197 5.24414 4.99969 5.24414Z" fill="#7D7D7D"/>
</svg>
