<svg width="16" height="16" viewBox="0 0 16 16" fill="none" xmlns="http://www.w3.org/2000/svg">
<path d="M5.33333 6C4.96514 6 4.66667 6.29848 4.66667 6.66667C4.66667 7.03486 4.96514 7.33333 5.33333 7.33333H10.6667C11.0349 7.33333 11.3333 7.03486 11.3333 6.66667C11.3333 6.29848 11.0349 6 10.6667 6H5.33333Z" fill="white"/>
<path fill-rule="evenodd" clip-rule="evenodd" d="M4 2C2.89543 2 2 2.89543 2 4V12C2 13.1046 2.89543 14 4 14H12C13.1046 14 14 13.1046 14 12V4C14 2.89543 13.1046 2 12 2H4ZM3.33333 12V4.66667H12.6667V12C12.6667 12.3682 12.3682 12.6667 12 12.6667H4C3.63181 12.6667 3.33333 12.3682 3.33333 12Z" fill="white"/>
</svg>
