<svg width="16" height="17" viewBox="0 0 16 17" fill="none" xmlns="http://www.w3.org/2000/svg">
<path d="M15.9519 15.3499L10.758 10.156C11.564 9.11396 11.9999 7.83997 11.9999 6.49997C11.9999 4.89598 11.374 3.39199 10.242 2.25799C9.10996 1.124 7.60197 0.5 5.99997 0.5C4.39798 0.5 2.88999 1.126 1.75799 2.25799C0.623997 3.38999 0 4.89598 0 6.49997C0 8.10197 0.625997 9.60996 1.75799 10.742C2.88999 11.876 4.39598 12.4999 5.99997 12.4999C7.33997 12.4999 8.61196 12.064 9.65396 11.26L14.8479 16.4519C14.8632 16.4672 14.8812 16.4793 14.9012 16.4875C14.9211 16.4958 14.9424 16.5 14.9639 16.5C14.9855 16.5 15.0068 16.4958 15.0267 16.4875C15.0466 16.4793 15.0647 16.4672 15.0799 16.4519L15.9519 15.5819C15.9672 15.5667 15.9793 15.5486 15.9875 15.5287C15.9958 15.5088 16 15.4875 16 15.4659C16 15.4444 15.9958 15.4231 15.9875 15.4032C15.9793 15.3833 15.9672 15.3652 15.9519 15.3499ZM9.16796 9.66796C8.31996 10.514 7.19597 10.98 5.99997 10.98C4.80398 10.98 3.67998 10.514 2.83199 9.66796C1.98599 8.81996 1.51999 7.69597 1.51999 6.49997C1.51999 5.30398 1.98599 4.17798 2.83199 3.33199C3.67998 2.48599 4.80398 2.01999 5.99997 2.01999C7.19597 2.01999 8.32196 2.48399 9.16796 3.33199C10.014 4.17998 10.48 5.30398 10.48 6.49997C10.48 7.69597 10.014 8.82196 9.16796 9.66796Z" fill="#7D7D7D"/>
</svg>
