<svg width="12" height="12" viewBox="0 0 12 12" fill="none" xmlns="http://www.w3.org/2000/svg">
<path d="M7.1257 12H4.87467C4.73363 12 4.59682 11.9533 4.48692 11.8675C4.37703 11.7817 4.30066 11.6621 4.27048 11.5284L4.01878 10.398C3.68302 10.2553 3.36464 10.0768 3.06951 9.8658L1.93349 10.2168C1.79902 10.2584 1.65393 10.2541 1.52231 10.2047C1.3907 10.1552 1.28047 10.0636 1.20994 9.945L0.0819496 8.0544C0.0121585 7.93568 -0.0140394 7.79749 0.00764219 7.66245C0.0293238 7.52741 0.097601 7.4035 0.201304 7.311L1.08255 6.531C1.04247 6.17767 1.04247 5.82113 1.08255 5.4678L0.201304 4.6896C0.0974541 4.59706 0.029084 4.47305 0.00739892 4.33787C-0.0142862 4.20269 0.0120001 4.06438 0.0819496 3.9456L1.20747 2.0538C1.278 1.93519 1.38822 1.84355 1.51984 1.79411C1.65146 1.74467 1.79655 1.7404 1.93101 1.782L3.06704 2.133C3.21793 2.025 3.37501 1.9242 3.53704 1.833C3.6935 1.7478 3.85428 1.6704 4.01878 1.6014L4.2711 0.4722C4.30113 0.338519 4.37736 0.218813 4.48714 0.132929C4.59692 0.0470459 4.73365 0.00014398 4.87467 0H7.1257C7.26672 0.00014398 7.40346 0.0470459 7.51323 0.132929C7.62301 0.218813 7.69924 0.338519 7.72928 0.4722L7.98406 1.602C8.3194 1.74556 8.63768 1.92401 8.93333 2.1342L10.07 1.7832C10.2044 1.74175 10.3493 1.7461 10.4808 1.79554C10.6123 1.84497 10.7224 1.93652 10.7929 2.055L11.9184 3.9468C12.0619 4.191 12.0124 4.5 11.7991 4.6902L10.9178 5.4702C10.9579 5.82353 10.9579 6.18007 10.9178 6.5334L11.7991 7.3134C12.0124 7.5042 12.0619 7.8126 11.9184 8.0568L10.7929 9.9486C10.7224 10.0672 10.6121 10.1588 10.4805 10.2083C10.3489 10.2577 10.2038 10.262 10.0694 10.2204L8.93333 9.8694C8.63843 10.0802 8.32025 10.2585 7.98468 10.401L7.72928 11.5284C7.69912 11.662 7.62284 11.7815 7.51307 11.8673C7.40331 11.9531 7.26664 11.9999 7.1257 12ZM5.99771 3.6C5.34166 3.6 4.71247 3.85286 4.24857 4.30294C3.78467 4.75303 3.52405 5.36348 3.52405 6C3.52405 6.63652 3.78467 7.24697 4.24857 7.69706C4.71247 8.14714 5.34166 8.4 5.99771 8.4C6.65377 8.4 7.28295 8.14714 7.74686 7.69706C8.21076 7.24697 8.47138 6.63652 8.47138 6C8.47138 5.36348 8.21076 4.75303 7.74686 4.30294C7.28295 3.85286 6.65377 3.6 5.99771 3.6Z" fill="white"/>
</svg>
