<svg width="18" height="18" viewBox="0 0 18 18" fill="none" xmlns="http://www.w3.org/2000/svg">
<path opacity="0.5" d="M15.2722 12.7776C14.7694 12.2744 14.1819 11.8637 13.5365 11.5642C14.4466 10.827 15.0272 9.70197 15.0272 8.44036C15.0272 6.21447 13.1709 4.38835 10.945 4.4225C8.75327 4.45666 6.98742 6.24259 6.98742 8.44036C6.98742 9.70197 7.57001 10.827 8.47804 11.5642C7.83259 11.8634 7.245 12.2742 6.74233 12.7776C5.64545 13.8765 5.02269 15.327 4.98251 16.8738C4.98197 16.8953 4.98573 16.9166 4.99357 16.9366C5.0014 16.9565 5.01316 16.9747 5.02813 16.9901C5.04311 17.0054 5.06101 17.0176 5.08078 17.026C5.10054 17.0343 5.12177 17.0386 5.14322 17.0386H6.26822C6.35461 17.0386 6.42693 16.9703 6.42894 16.8839C6.46711 15.7187 6.9392 14.6279 7.76889 13.8002C8.19346 13.3734 8.69846 13.035 9.25468 12.8046C9.81089 12.5743 10.4073 12.4565 11.0093 12.4582C12.2327 12.4582 13.3838 12.9343 14.2497 13.8002C15.0774 14.6279 15.5495 15.7187 15.5897 16.8839C15.5917 16.9703 15.664 17.0386 15.7504 17.0386H16.8754C16.8968 17.0386 16.918 17.0343 16.9378 17.026C16.9576 17.0176 16.9755 17.0054 16.9904 16.9901C17.0054 16.9747 17.0172 16.9565 17.025 16.9366C17.0329 16.9166 17.0366 16.8953 17.0361 16.8738C16.9959 15.327 16.3731 13.8765 15.2722 12.7776ZM11.0093 11.0118C10.3222 11.0118 9.67536 10.7446 9.19121 10.2584C8.94824 10.0174 8.75631 9.72985 8.62688 9.413C8.49745 9.09615 8.43316 8.75648 8.43786 8.41425C8.44389 7.75532 8.70706 7.11849 9.1671 6.64639C9.64925 6.15219 10.2941 5.87697 10.9832 5.86893C11.6642 5.86291 12.3251 6.12808 12.8113 6.6042C13.3095 7.09237 13.5827 7.74527 13.5827 8.44036C13.5827 9.12741 13.3155 9.77228 12.8294 10.2584C12.5909 10.4981 12.3072 10.6881 11.9948 10.8174C11.6824 10.9467 11.3474 11.0128 11.0093 11.0118ZM5.97693 8.97072C5.95885 8.79594 5.9488 8.61916 5.9488 8.44036C5.9488 8.12094 5.97894 7.80956 6.03519 7.50621C6.04925 7.43389 6.01108 7.35956 5.94478 7.32942C5.67157 7.20688 5.42045 7.03813 5.20349 6.82518C4.94783 6.5773 4.74666 6.27884 4.61279 5.94885C4.47893 5.61887 4.41533 5.26461 4.42603 4.90866C4.44411 4.2638 4.70327 3.65108 5.15527 3.18902C5.65148 2.68076 6.31844 2.40353 7.0276 2.41157C7.66844 2.41759 8.28719 2.66469 8.75527 3.10264C8.91398 3.2513 9.05059 3.41603 9.1651 3.59282C9.20527 3.65509 9.28362 3.68121 9.35193 3.6571C9.7055 3.53456 10.0792 3.44817 10.4629 3.40799C10.5754 3.39594 10.6396 3.27541 10.5894 3.17496C9.93652 1.88322 8.6026 0.991253 7.05974 0.967146C4.83184 0.932994 2.97559 2.75911 2.97559 4.98299C2.97559 6.2446 3.55617 7.3696 4.46621 8.10688C3.82737 8.40219 3.23876 8.81 2.72849 9.32027C1.6276 10.4192 1.00483 11.8696 0.96465 13.4185C0.964114 13.4399 0.967874 13.4613 0.975711 13.4812C0.983547 13.5012 0.9953 13.5194 1.01028 13.5347C1.02525 13.5501 1.04315 13.5623 1.06292 13.5706C1.08268 13.5789 1.10392 13.5832 1.12536 13.5832H2.25237C2.33876 13.5832 2.41108 13.5149 2.41309 13.4285C2.45126 12.2634 2.92336 11.1725 3.75304 10.3448C4.34367 9.7542 5.06688 9.34438 5.85639 9.14549C5.93474 9.12541 5.98697 9.05107 5.97693 8.97072Z" fill="#7D7D7D"/>
</svg>
